<?xml version="1.0" encoding="utf-8"?>
<!-- Generator: Adobe Illustrator 20.1.0, SVG Export Plug-In . SVG Version: 6.00 Build 0)  -->
<svg version="1.1"
	 id="svg2" inkscape:output_extension="org.inkscape.output.svg.inkscape" inkscape:version="0.45.1" sodipodi:docbase="C:¥esteban" sodipodi:docname="command key.svg" sodipodi:version="0.32" xmlns:cc="http://web.resource.org/cc/" xmlns:dc="http://purl.org/dc/elements/1.1/" xmlns:inkscape="http://www.inkscape.org/namespaces/inkscape" xmlns:rdf="http://www.w3.org/1999/02/22-rdf-syntax-ns#" xmlns:sodipodi="http://sodipodi.sourceforge.net/DTD/sodipodi-0.dtd" xmlns:svg="http://www.w3.org/2000/svg"
	 xmlns="http://www.w3.org/2000/svg" xmlns:xlink="http://www.w3.org/1999/xlink" x="0px" y="0px" viewBox="0 0 236.7 236.7"
	 style="enable-background:new 0 0 236.7 236.7;" xml:space="preserve">
<style type="text/css">
	.st0{fill:#FFFFFF;}
</style>
<sodipodi:namedview  bordercolor="#666666" borderopacity="1.0" gridtolerance="10.0" guidetolerance="10.0" height="280px" id="base" inkscape:current-layer="svg2" inkscape:cx="256" inkscape:cy="158.18021" inkscape:pageopacity="0.0" inkscape:pageshadow="2" inkscape:window-height="579" inkscape:window-width="813" inkscape:window-x="110" inkscape:window-y="138" inkscape:zoom="0.8630137" objecttolerance="10.0" pagecolor="#ffffff" width="280px">
	</sodipodi:namedview>
<path id="path2206" d="M187.1,99h-23.2v38.7h23.2c27.4,0,49.5,22.1,49.5,49.4c0,27.5-22.1,49.5-49.5,49.5c-27.4,0-49.5-22-49.5-49.5
	l0,0V164H99.1v23.1c0,27.5-22.2,49.5-49.5,49.5c-27.4,0-49.6-22-49.6-49.5c0-27.3,22.2-49.4,49.6-49.4l0,0h23.2V99H49.6
	C22.3,99.2,0,76.9,0,49.5C0,22.2,22.2,0,49.6,0c27.3,0,49.5,22.2,49.5,49.5v23.3h38.6V49.5C137.5,22.2,159.8,0,187.1,0
	c27.4,0,49.5,22.2,49.5,49.5C236.7,76.9,214.6,99,187.1,99z"/>
<rect id="rect2208" x="99.1" y="99.1" class="st0" width="38.7" height="38.7"/>
<path id="path2210" class="st0" d="M72.8,49.4c0-12.7-10.4-23.1-23.1-23.1c-13,0-23.3,10.4-23.3,23.1c0,13,10.4,23.3,23.3,23.3l0,0
	h23.1V49.4z"/>
<path id="path2212" class="st0" d="M72.8,187.1V164H49.7l0,0c-13,0-23.3,10.4-23.3,23.1c0,13,10.4,23.3,23.3,23.3
	C62.4,210.5,72.8,200.1,72.8,187.1z"/>
<path id="path2214" class="st0" d="M163.9,187.1L163.9,187.1c0,13,10.4,23.3,23.1,23.3c13,0,23.3-10.4,23.3-23.3
	c0-12.7-10.4-23.1-23.3-23.1h-23.1V187.1z"/>
<path id="path2216" class="st0" d="M163.9,72.7V49.4c0-12.7,10.4-23.1,23.1-23.1c13,0,23.3,10.4,23.3,23.1c0,13-10.4,23.3-23.3,23.3
	H163.9z"/>
</svg>
